# xmcd CD database file
#
# Track frame offsets:
#	150
#	69458
#	104737
#	133546
#	171238
#	191097
#
# Disc length: 3469 seconds
#
# Revision: 0
# Processed by: cddbd v1.5.1PL0 Copyright (c) Steve Scherf et al.
# Submitted via: CDex 1.51
#
DISCID=570d8b06
DTITLE=Enrico Pieranunzi, Marc Johnson, Joey Baron - Live In Japan [CD1]
DYEAR=2004
DGENRE=Jazz
TTITLE0=Impronippo
TTITLE1=How Can You Not?
TTITLE2=If Only For A Time
TTITLE3=Mio Caro Dotter Grasler
TTITLE4=Musashi
TTITLE5=Improleaves
EXTD=YEAR: 2004
EXTT0=
EXTT1=
EXTT2=
EXTT3=
EXTT4=
EXTT5=
PLAYORDER=
